<svg xmlns="http://www.w3.org/2000/svg" viewBox="0 0 192 192"><path d="M141.54 88.988a66.667 66.667 0 0 0-2.518-1.143c-1.482-27.307-16.403-42.94-41.457-43.1h-.34c-14.986 0-27.449 6.396-35.12 18.035l13.78 9.452c5.73-8.694 14.723-10.548 21.347-10.548h.23c8.248.054 14.473 2.452 18.502 7.13 2.932 3.405 4.893 8.11 5.864 14.05-7.314-1.244-15.224-1.626-23.68-1.141-23.82 1.372-39.134 15.265-38.105 34.569.522 9.792 5.4 18.216 13.735 23.719 7.047 4.652 16.124 6.927 25.557 6.412 12.458-.683 22.231-5.436 29.05-14.127 5.177-6.6 8.452-15.153 9.898-25.93 5.937 3.583 10.337 8.298 12.767 13.966 4.132 9.635 4.373 25.468-8.546 38.376-11.319 11.308-24.925 16.2-45.488 16.35-22.809-.168-40.06-7.483-51.275-21.741C35.238 139.966 29.811 120.682 29.608 96c.203-24.682 5.63-43.966 16.133-57.317C56.957 24.425 74.207 17.11 97.016 16.94c22.975.17 40.526 7.52 52.171 21.848 5.71 7.025 10.015 15.86 12.853 26.162l16.147-4.308c-3.44-12.68-8.853-23.606-16.219-32.668C147.04 9.608 125.205.195 97.072 0h-.113C68.884.195 47.294 9.643 32.79 28.08 19.884 44.487 13.226 67.316 13.002 95.933v.135c.224 28.616 6.882 51.446 19.788 67.854C47.294 182.359 68.883 191.807 96.96 192h.112c24.96-.173 42.554-6.708 57.048-21.19 18.963-18.944 18.392-42.691 12.142-57.27-4.484-10.453-13.033-18.944-24.723-24.552zm-43.096 40.519c-10.44.588-21.286-4.098-21.821-14.135-.396-7.442 5.296-15.746 22.462-16.735 1.966-.113 3.895-.169 5.79-.169 6.235 0 12.068.606 17.37 1.765-1.977 24.702-13.58 28.713-23.801 29.274z"/></svg>